<?xml version="1.0" standalone="no"?>
<!DOCTYPE svg PUBLIC "-//W3C//DTD SVG 20010904//EN"
 "http://www.w3.org/TR/2001/REC-SVG-20010904/DTD/svg10.dtd">
<svg version="1.0" xmlns="http://www.w3.org/2000/svg"
 width="613.000000pt" height="190.000000pt" viewBox="0 0 613.000000 190.000000"
 preserveAspectRatio="xMidYMid meet">

<g transform="translate(0.000000,190.000000) scale(0.100000,-0.100000)"
fill="#000000" stroke="none">
<path d="M1019 1682 c-16 -11 -18 -31 -19 -198 0 -180 -6 -217 -34 -236 -6 -4
-103 -8 -215 -8 -125 0 -218 -4 -240 -11 -76 -25 -126 -55 -161 -100 -35 -45
-44 -63 -69 -140 -15 -48 -15 -440 1 -488 31 -97 43 -123 73 -159 32 -37 85
-68 156 -91 57 -18 493 -15 548 5 130 45 198 115 237 243 19 64 21 1163 2
1179 -20 16 -257 20 -279 4z m-46 -740 c28 -30 38 -70 28 -113 -5 -22 -5 -81
-1 -132 8 -94 -3 -150 -33 -169 -7 -4 -85 -8 -174 -8 l-161 0 -26 31 c-26 30
-26 33 -26 197 0 224 -12 212 210 212 146 0 169 -2 183 -18z"/>
<path d="M4375 1644 c-14 -14 -15 -32 -9 -123 3 -58 9 -109 11 -113 2 -5 63
-8 134 -8 95 0 131 3 133 13 3 6 7 56 10 109 9 135 5 138 -148 138 -93 0 -118
-3 -131 -16z"/>
<path d="M1690 1228 c-14 -5 -40 -16 -58 -24 -40 -17 -119 -89 -137 -125 -40
-77 -45 -110 -45 -340 0 -137 4 -239 11 -260 33 -103 81 -159 175 -205 l59
-29 237 -3 c264 -3 301 2 390 60 58 37 121 116 138 173 8 27 10 121 8 290 -3
279 -4 284 -78 368 -38 43 -91 74 -161 96 -46 14 -504 14 -539 -1z m452 -295
l28 -27 0 -171 c0 -228 12 -215 -201 -215 -156 0 -160 1 -184 25 -21 20 -25
34 -26 92 -1 37 -3 110 -5 162 -3 95 9 142 38 154 7 3 83 6 167 6 l155 1 28
-27z"/>
<path d="M2855 1230 c-11 -4 -36 -14 -55 -21 -42 -16 -125 -91 -148 -134 -39
-71 -42 -102 -42 -456 0 -323 1 -347 18 -362 15 -14 41 -17 138 -17 80 0 124
4 132 12 9 9 12 97 12 333 0 397 -14 365 165 365 68 0 130 -3 139 -6 9 -3 24
-20 35 -37 18 -30 19 -48 15 -330 -3 -200 -1 -304 6 -317 10 -18 21 -20 135
-20 180 0 165 -33 165 358 0 302 1 320 19 336 17 15 37 17 151 14 184 -4 169
26 170 -361 0 -193 4 -316 10 -328 10 -17 22 -19 139 -19 113 0 130 2 145 19
16 17 17 50 14 383 -4 397 -3 387 -67 475 -16 23 -50 53 -74 68 -92 53 -114
55 -680 54 -287 0 -531 -4 -542 -9z"/>
<path d="M4362 1215 c-15 -32 -14 -920 1 -952 10 -22 15 -23 143 -23 89 0 135
4 140 11 4 7 7 228 7 491 0 404 -2 481 -14 489 -8 5 -71 9 -140 9 -124 0 -126
0 -137 -25z"/>
<path d="M4810 1221 c-6 -12 -7 -54 -4 -109 l7 -90 133 -123 c74 -68 137 -134
140 -146 9 -35 -5 -61 -49 -92 -23 -16 -84 -72 -135 -124 l-93 -94 -6 -75 c-3
-42 -3 -88 1 -102 l6 -26 111 0 111 0 137 135 c98 96 144 135 161 135 16 0 43
-21 84 -64 34 -35 96 -95 138 -135 l77 -71 108 0 c72 0 113 4 121 12 8 8 12
45 12 101 l0 88 -42 43 c-24 24 -83 81 -133 127 -49 46 -98 97 -108 113 l-19
29 151 151 151 151 0 81 c0 49 -5 85 -12 92 -18 18 -202 16 -236 -2 -15 -8
-79 -67 -142 -130 -89 -91 -121 -116 -141 -116 -21 0 -54 26 -144 113 -64 61
-131 120 -148 129 -24 13 -57 17 -129 18 -86 0 -98 -2 -108 -19z"/>
</g>
</svg>
